<?xml version="1.0" standalone="no"?>
<!DOCTYPE svg PUBLIC "-//W3C//DTD SVG 20010904//EN"
 "http://www.w3.org/TR/2001/REC-SVG-20010904/DTD/svg10.dtd">
<svg version="1.0" xmlns="http://www.w3.org/2000/svg"
 width="600.000000pt" height="600.000000pt" viewBox="0 0 600.000000 600.000000"
 preserveAspectRatio="xMidYMid meet">
<metadata>
Created by potrace 1.11, written by Peter Selinger 2001-2013
</metadata>
<g transform="translate(0.000000,600.000000) scale(0.100000,-0.100000)"
fill="#000000" stroke="none">
<path d="M2189 4316 c-2 -2 -44 -6 -94 -9 -90 -6 -133 -12 -170 -24 -11 -4
-27 -8 -35 -9 -30 -5 -45 -10 -66 -22 -12 -6 -24 -8 -28 -5 -3 3 -6 1 -6 -5 0
-7 -3 -11 -7 -10 -12 3 -83 -33 -83 -43 0 -5 -7 -5 -17 -2 -9 4 -14 2 -10 -3
3 -5 -11 -21 -31 -34 -34 -22 -136 -120 -125 -120 4 0 -8 -15 -35 -45 -7 -8
-10 -15 -6 -15 4 0 0 -8 -9 -17 -8 -10 -16 -22 -17 -28 -2 -5 -6 -21 -11 -34
-5 -13 -11 -31 -13 -40 -2 -9 -6 -23 -9 -31 -19 -50 -27 -121 -13 -113 5 4 6
1 1 -6 -9 -15 -13 -121 -4 -121 3 0 6 -6 6 -12 1 -26 12 -70 30 -115 3 -10 7
-21 7 -25 1 -4 8 -16 16 -26 8 -10 16 -25 18 -32 8 -33 133 -170 155 -170 5 0
5 -5 2 -10 -4 -6 -3 -9 2 -8 4 1 20 -5 36 -15 67 -42 82 -51 86 -48 2 1 7 -2
10 -7 5 -8 93 -53 111 -57 3 -1 22 -9 43 -18 20 -9 54 -25 75 -34 20 -9 39
-17 42 -18 3 -1 19 -8 35 -15 17 -7 32 -14 35 -15 3 -1 25 -11 50 -22 25 -12
60 -27 78 -34 17 -8 32 -17 32 -21 0 -5 3 -7 8 -6 13 3 92 -34 92 -43 0 -5 3
-8 8 -7 14 4 52 -13 52 -23 0 -6 5 -7 10 -4 6 3 13 -1 16 -9 3 -9 10 -16 16
-16 25 0 121 -111 117 -136 0 -4 4 -10 10 -13 6 -4 12 -20 15 -37 2 -16 6 -36
10 -44 5 -12 2 -125 -4 -125 -1 0 -3 -15 -6 -34 -2 -19 -9 -39 -14 -46 -5 -7
-8 -14 -6 -16 8 -8 -81 -115 -115 -136 -18 -13 -40 -27 -46 -33 -7 -6 -14 -10
-15 -10 -2 1 -16 -4 -33 -10 -16 -7 -38 -14 -47 -16 -10 -2 -28 -7 -40 -10
-13 -3 -34 -7 -48 -9 -14 -2 -26 -4 -27 -5 -6 -4 -132 -1 -183 4 -52 5 -73 8
-130 22 -14 3 -36 8 -50 11 -14 3 -27 9 -30 12 -6 8 -71 33 -87 34 -7 0 -13 6
-13 14 0 7 -3 12 -7 11 -21 -6 -117 59 -205 139 -26 24 -51 43 -56 43 -14 0
-33 -26 -25 -33 3 -4 -1 -7 -10 -7 -10 0 -17 -4 -17 -9 0 -4 -10 -19 -22 -33
-56 -60 -98 -114 -98 -124 0 -6 8 -18 18 -27 9 -9 34 -32 54 -52 21 -19 41
-35 45 -36 4 0 28 -16 53 -35 25 -19 56 -40 70 -46 14 -7 28 -17 32 -23 4 -5
8 -7 8 -2 0 4 18 -4 40 -18 23 -14 45 -23 50 -20 6 4 10 2 10 -3 0 -6 16 -13
35 -16 20 -4 33 -11 30 -17 -4 -5 -3 -9 2 -7 4 1 42 -6 83 -16 41 -10 91 -20
110 -23 78 -9 169 -14 230 -13 36 0 75 1 88 0 12 0 22 6 22 13 0 8 4 7 10 -3
5 -8 10 -10 10 -4 0 6 12 10 28 9 15 -1 32 1 37 4 6 3 15 6 20 8 6 1 24 6 42
11 17 6 34 8 37 4 3 -3 6 1 6 8 0 7 3 11 6 7 4 -3 24 3 45 14 22 11 39 16 39
13 0 -4 8 0 18 9 19 17 72 41 85 38 5 -1 6 3 3 8 -4 5 10 19 29 31 19 12 35
26 35 31 0 6 4 8 8 5 5 -3 15 6 22 19 7 14 22 27 32 31 10 3 16 9 14 13 -3 4
8 23 25 42 16 19 29 40 29 47 0 6 5 12 11 12 5 0 7 5 4 10 -3 6 -2 10 3 10 6
0 16 20 23 44 7 25 16 43 19 41 4 -2 6 6 5 18 -1 12 0 27 4 32 20 34 21 325 1
325 -3 0 -6 10 -7 23 -2 25 -44 120 -55 125 -5 2 -8 13 -8 23 0 11 -4 17 -10
14 -5 -3 -10 0 -10 7 0 26 -179 196 -180 171 0 -4 -5 0 -11 10 -6 9 -14 15
-20 12 -5 -4 -9 -2 -9 3 0 4 -16 14 -35 22 -19 8 -35 18 -35 22 0 5 -4 7 -9 3
-5 -3 -16 2 -24 10 -9 8 -20 15 -26 15 -5 0 -30 11 -55 24 -26 14 -46 22 -46
20 0 -2 -18 5 -40 16 -21 11 -46 20 -55 20 -8 0 -15 5 -15 10 0 6 -6 10 -13
10 -7 0 -32 9 -55 20 -22 11 -48 20 -57 20 -8 0 -15 4 -15 10 0 5 -3 9 -7 9
-15 -3 -73 23 -73 33 0 5 -4 7 -9 4 -9 -6 -143 61 -153 78 -4 6 -8 7 -8 3 0
-9 -18 4 -77 61 -66 63 -97 138 -95 229 1 41 6 82 11 92 6 10 7 21 4 25 -3 3
-1 6 6 6 7 0 10 4 6 9 -3 5 2 17 11 25 8 9 12 16 8 16 -8 0 59 65 92 90 56 41
119 62 229 76 28 4 53 8 58 11 4 2 7 1 7 -4 0 -4 34 -8 75 -8 41 1 75 -3 75
-7 0 -4 7 -5 15 -2 8 3 20 2 27 -2 7 -5 18 -9 23 -9 28 -1 157 -56 175 -75 3
-3 17 -11 33 -17 15 -7 27 -17 27 -23 0 -5 5 -10 11 -10 6 0 27 -16 47 -35 20
-19 40 -35 44 -35 3 0 28 25 55 56 26 31 53 61 58 68 45 50 54 68 42 87 -6 10
-15 19 -19 19 -4 0 -21 14 -36 30 -16 17 -34 30 -41 30 -6 0 -11 5 -11 10 0 6
-4 10 -10 10 -5 0 -21 10 -36 23 -14 12 -29 22 -32 22 -4 1 -38 16 -77 35 -38
19 -74 35 -80 36 -5 1 -26 8 -45 17 -19 8 -38 13 -42 11 -5 -3 -8 -1 -8 5 0 5
-7 8 -16 7 -8 -1 -43 3 -76 10 -34 7 -65 11 -69 8 -4 -2 -18 0 -32 5 -14 5
-27 8 -28 7z"/>
<path d="M3506 4272 c-3 -5 -25 -7 -50 -5 l-44 3 2 -42 c1 -24 -2 -49 -8 -57
-6 -9 -7 -12 -1 -9 12 7 13 -212 0 -232 -5 -7 -4 -11 1 -8 11 8 11 -293 -1
-312 -5 -7 -4 -11 1 -8 11 8 11 -293 -1 -312 -5 -7 -4 -11 1 -8 11 8 11 -293
-1 -312 -5 -7 -4 -11 1 -7 11 7 11 -214 -1 -233 -5 -7 -4 -11 1 -7 11 6 11
-134 -1 -153 -5 -8 -4 -11 1 -7 11 6 11 -94 0 -111 -3 -6 -3 -13 2 -16 10 -6
8 -48 -3 -66 -5 -7 -4 -11 1 -7 11 7 11 -174 -1 -192 -5 -8 -4 -12 1 -8 10 6
11 -173 1 -190 -4 -7 -4 -14 1 -17 9 -5 8 -53 -1 -63 -4 -3 -2 -12 4 -20 9
-11 134 -13 685 -13 l674 0 1 43 c2 107 0 210 -5 214 -3 3 -240 6 -526 5
l-520 0 -1 31 c0 18 -1 500 -2 1072 l-2 1040 -42 -1 c-25 0 -40 3 -36 9 4 6 1
7 -7 2 -17 -10 -120 -13 -114 -3 3 4 3 8 0 8 -3 0 -7 -4 -10 -8z"/>
</g>
</svg>
